<svg width="60" height="60" viewBox="0 0 84 141" fill="none" xmlns="http://www.w3.org/2000/svg">
  <path fill-rule="evenodd" clip-rule="evenodd" d="M11.6871 83.4577L11.0017 84.0407V85.1008L11.6871 85.6838H14.534V83.4577H11.6871ZM19.6831 82.5036L19.5952 82.2209L19.4722 81.9206L19.2965 81.6202L19.1032 81.3375L18.8923 81.0902L18.6462 80.8605L18.3826 80.6485L18.1015 80.4718L17.8027 80.3305L17.4864 80.2245L17.1701 80.1361L16.8537 80.0831L16.5198 80.0654V80.0478H15.3073L15.3951 82.4683V82.6449L15.7993 82.6096L16.2035 82.5919L16.6077 82.6096L16.9943 82.6626L17.381 82.751L17.7676 82.8746L18.1366 83.0336L18.5057 83.2103L18.8571 83.4223L19.1735 83.652L19.4898 83.917L19.7885 84.1997L20.0521 84.5177L20.2982 84.8358L20.509 85.1891L20.6848 85.5425L20.8429 85.9312L20.8605 86.0372L20.8429 86.1255L20.7902 86.2138L20.7199 86.2845L20.6321 86.3375L20.5442 86.3552L20.4563 86.3375L20.3685 86.3022L20.2806 86.2492L20.1752 86.0548L20.0697 85.8252L19.8764 85.5071L19.6655 85.1891L19.4195 84.9064L19.1559 84.6414L18.8747 84.4117L18.5584 84.1997L18.2421 84.023L17.9082 83.8817L17.5567 83.758L17.2052 83.6697L16.8362 83.6167L16.4847 83.599L16.1157 83.6167L15.7466 83.6697L15.3951 83.7404V87.7686H14.5516V86.5849L14.534 86.4965L14.4989 86.4435L14.3759 86.4259H12.6712L12.6009 86.4435L12.5834 86.4789L12.6888 87.0619L12.6712 87.1679L12.6185 87.2209L12.5482 87.2739H12.4779L12.3373 87.2032L10.1934 85.3835V83.5813L12.3725 81.7439L12.4779 81.6909H12.5482L12.6185 81.7439L12.6712 81.7969L12.6888 81.9206L12.5834 82.5036L12.6009 82.5566L12.6712 82.5743H14.4286L14.4989 82.5213L14.534 82.4153L14.4286 79.0054H16.432L16.8889 79.0584L17.2404 79.1114L17.5743 79.1997L17.9082 79.3234L18.2245 79.4647L18.5408 79.6414L18.822 79.8534L19.1032 80.0831L19.3492 80.3305L19.5952 80.6131L19.8061 80.8958L19.9818 81.2138L20.14 81.5319L20.263 81.8499L20.3509 82.1502L20.3685 82.2916L20.3509 82.3976L20.2982 82.4859L20.2103 82.5743L20.1224 82.6096L20.017 82.6273L19.9115 82.6096L19.8237 82.5566L19.6831 82.5036Z" fill="#05252F"/>
  <path fill-rule="evenodd" clip-rule="evenodd" d="M71.191 107.839L71.8764 107.256V106.196L71.191 105.613H68.3441V107.839H71.191V107.839ZM63.1774 108.793L63.2653 109.076L63.3883 109.376L63.5641 109.677L63.7574 109.959L63.9682 110.207L64.2143 110.436L64.4779 110.648L64.7591 110.825L65.0578 110.966L65.3741 111.072L65.6905 111.161L66.0068 111.214L66.3407 111.231V111.249H67.5533L67.4654 108.829V108.652L67.0612 108.687L66.657 108.705L66.2528 108.687L65.8662 108.634L65.4796 108.546L65.093 108.422L64.7239 108.263L64.3549 108.087L64.0034 107.875L63.6871 107.645L63.3707 107.38L63.072 107.097L62.8084 106.779L62.5624 106.461L62.3515 106.108L62.1757 105.754L62.0176 105.366L62 105.26L62.0176 105.171L62.0703 105.083L62.1406 105.012L62.2285 104.959L62.3163 104.942L62.4042 104.959L62.4921 104.995L62.5799 105.048L62.6854 105.242L62.7908 105.472L62.9841 105.79L63.195 106.108L63.441 106.391L63.7046 106.656L63.9858 106.885L64.3021 107.097L64.6185 107.274L64.9524 107.415L65.3038 107.539L65.6553 107.627L66.0244 107.68L66.3758 107.698L66.7449 107.68L67.1139 107.627L67.4654 107.557V103.528H68.3089V104.712L68.3265 104.8L68.3616 104.853L68.4847 104.871H70.1893L70.2596 104.853L70.2772 104.818L70.1717 104.235L70.1893 104.129L70.242 104.076L70.3123 104.023H70.3826L70.5232 104.094L72.6672 105.913V107.716L70.488 109.553L70.3826 109.606H70.3123L70.242 109.553L70.1893 109.5L70.1717 109.376L70.2772 108.793L70.2596 108.74L70.1893 108.723H68.4319L68.3616 108.776L68.3265 108.882L68.4319 112.292H66.4285L65.9716 112.239L65.6202 112.186L65.2863 112.097L64.9524 111.974L64.636 111.832L64.3197 111.656L64.0385 111.444L63.7574 111.214L63.5113 110.966L63.2653 110.684L63.0544 110.401L62.8787 110.083L62.7205 109.765L62.5975 109.447L62.5096 109.147L62.4921 109.005L62.5096 108.899L62.5624 108.811L62.6502 108.723L62.7381 108.687L62.8435 108.67L62.949 108.687L63.0368 108.74L63.1774 108.793Z" fill="#05252F"/>
  <path fill-rule="evenodd" clip-rule="evenodd" d="M39.6287 34.0758L39.5057 34.1642L39.4881 34.2525L39.5057 34.3409L40.4722 36.3727L40.5601 36.3903L40.648 36.4433L40.7358 36.514L40.7886 36.62L40.8061 36.726L40.7886 36.832L40.7534 36.938L40.7007 37.0264L40.6128 37.0794L40.525 37.1324L40.4195 37.15L40.3141 37.1324L40.2262 37.097L37.8713 34.4115H36.8169L36.6763 34.4645L36.5885 34.5529L36.5182 34.6589L36.5006 34.8886V37.3267L36.483 37.3974L36.4479 37.4681L36.3776 37.5034L36.3073 37.5211H35.7801L35.7098 37.5034L35.6395 37.4681L35.6044 37.3974L35.5692 37.2384V36.3903L35.5516 36.2666L35.5165 36.2313L35.3935 36.2136H33.8119L33.7416 36.9557L33.6713 37.0264L33.5834 37.0087L31.3164 35.2419V33.4575L33.5834 31.6907L33.6713 31.673L33.7416 31.7083L33.8119 32.4681H35.4286L35.5341 32.4327L35.5692 32.3267V29.0228L36.2721 28.7578L36.9575 28.5458L37.678 28.3515L38.381 28.1924L39.1015 28.0688L39.822 27.9804L40.5425 27.9098L41.2806 27.8921L41.3509 27.9098L41.4388 27.9451L41.4915 28.0158L41.5266 28.0864V28.1748L41.4915 28.2631L40.8237 29.4292L40.7886 29.5705L40.8237 29.6765L40.9994 29.9239L41.14 30.1712L41.263 30.4539L41.3509 30.7366L41.4212 31.037L41.4388 31.3373L41.4212 31.62L41.3861 31.9204L41.3333 32.2207L41.2279 32.5034L41.1049 32.7684L40.9467 33.0334L40.771 33.2631L40.5777 33.4751L40.3316 33.6695L40.1032 33.8462L39.8396 33.9875L39.6287 34.0758ZM35.6744 34.9768V33.7223L35.6568 33.4927L35.6041 33.4043L35.5338 33.3336L35.4284 33.2806L35.2175 33.2453H33.5129L33.3899 33.2806L33.2844 33.316L33.2317 33.3513L32.4936 33.9697L32.3706 34.0934L32.3354 34.217L32.3003 34.3407L32.3354 34.4821L32.3706 34.5881L32.4936 34.7294L33.2493 35.3301L33.2844 35.3655L33.3899 35.4185L33.5129 35.4361H35.2175L35.4284 35.4185L35.5338 35.3478L35.6041 35.2771L35.6568 35.1888L35.6744 34.9768ZM39.418 30.4539L39.4883 30.6836L39.5234 30.9133L39.541 31.1783L39.5234 31.4433L39.4531 31.7083L39.3828 31.9557L39.2774 32.1854L39.1192 32.415L38.961 32.6094L38.7677 32.7861L38.5568 32.9627L38.3284 33.0864L38.0648 33.1748L37.8188 33.2454L37.5727 33.2808L37.2916 33.2984L37.151 33.2808L37.0279 33.2454L36.9049 33.1748L36.7995 33.0687L36.7292 32.9627L36.6589 32.8214L36.6413 32.6977V32.5387L36.7643 30.9486L36.7995 30.7543L36.8522 30.5599L36.9401 30.3832L37.0455 30.2066L37.1861 30.0475L37.3618 29.9239L37.5376 29.8179L37.7133 29.7295L37.9242 29.6765L38.1175 29.6588L38.3284 29.6765L38.5217 29.6942L38.715 29.7649L38.8908 29.8532L39.0665 29.9769L39.2071 30.1182L39.3125 30.2772L39.418 30.4539Z" fill="#05252F"/>
  <path d="M43.9516 0.489258H41.7549V49.4645H43.9516V0.489258Z" fill="#05252F"/>
  <path d="M70.6625 0.489258H68.4658V49.4645H70.6625V0.489258Z" fill="#05252F"/>
  <path d="M57.3168 0.489258H55.1201V49.4645H57.3168V0.489258Z" fill="#05252F"/>
  <path d="M54.8116 44.7295H43.9512V49.4645H54.8116V44.7295Z" fill="#05252F"/>
  <path d="M68.5019 44.7295H56.9912V49.4645H68.5019V44.7295Z" fill="#05252F"/>
  <path fill-rule="evenodd" clip-rule="evenodd" d="M79.9068 47.8742V36.2841L76.9896 35.0121V47.6622L79.9068 47.8742ZM75.0038 56.5315L75.2147 56.5138L75.408 56.4608L75.6013 56.3901L75.777 56.3018L75.9352 56.1781L76.0582 56.0191L76.2164 55.8071L77.7453 52.6622V49.3407L81.5236 49.6234V36.4432L81.506 36.2135L81.4709 35.9838L81.4006 35.7541L81.3127 35.5421L81.1897 35.3477L81.0315 35.1711L80.8558 35.0121L80.6625 34.8884L80.4516 34.7824L80.2407 34.694L75.3904 32.5386V47.2735L75.3728 47.5032L75.3201 47.7329L75.2323 47.9626L75.1268 48.1746L75.0038 48.3689L74.8456 48.5456L74.6699 48.7046L74.4766 48.846L74.2657 48.952L74.0372 49.0227V50.7364H74.5996H74.7929L74.9687 50.7718L75.1444 50.8424L75.3201 50.9308L75.4783 51.0368L75.6013 51.1781L75.7243 51.3371L75.8122 51.5138L75.8825 51.6905L75.9176 51.8848V52.0615L75.8825 52.2559L75.8298 52.4325L75.7419 52.6092H75.7595L74.6699 54.8354H74.2657L73.9494 54.853L73.7912 54.8884L73.6506 54.959L73.5276 55.0474L73.4222 55.1534L73.3343 55.2947L73.2816 55.4361L73.2464 55.5951V55.7541L73.2816 55.9131L73.3343 56.0545L73.4222 56.1958L73.5276 56.3018L73.6506 56.3901L73.7912 56.4608L73.9494 56.4962L74.1075 56.5138L75.0038 56.5315ZM75.3904 34.429L70.874 30.7188L70.8389 30.6481L70.8213 30.5774L70.8389 30.4891L70.874 30.4184L70.9443 30.3654L71.0146 30.3301H71.0849L71.1728 30.3654L75.3728 32.5386L75.408 32.5562V34.429H75.3904ZM75.3904 38.7046L71.9109 36.9025L71.8406 36.8848L71.7527 36.9025L71.6648 36.9379L71.6121 36.9909L71.577 37.0792L71.5594 37.1675L71.577 37.2382L71.6297 37.3089L75.3728 40.1357V38.7046H75.3904Z" fill="#05252F"/>
  <path d="M61.8766 100.825L61.8063 100.595L61.6833 100.401L61.5251 100.242L61.3318 100.118L61.1033 100.047L60.7694 99.9945H57.2723L57.1141 100.03L56.9735 100.1L56.8681 100.207L56.7978 100.348L56.7626 100.507V102.786H59.1702V107.256L59.1527 107.486L59.0648 107.698L58.9593 107.892L58.8188 108.051L58.643 108.175L58.4321 108.263L58.2037 108.316L57.9752 108.298V108.316H53.2831V108.298L53.037 108.281L52.791 108.21L52.5626 108.122L52.3517 107.998L52.1584 107.821L52.0178 107.627L51.8948 107.415L51.8069 107.168L51.7542 106.92V106.673L51.7893 106.426L51.8772 106.178L51.9826 105.949L51.9651 105.931L52.1759 105.507L52.3341 105.083L52.4571 104.641L52.545 104.199L52.5977 103.758V103.316V103.298V100.189H50.032L50.5416 102.574V103.104L13.6722 106.037H13.3208L13.1802 105.984L13.0747 105.896L12.9869 105.79L12.9166 105.666L12.899 105.525V89.6411H14.4455V86.8673L14.3928 86.6906L14.2522 86.5846L13.145 86.3019L13.0396 86.3196L12.9517 86.3903L12.899 86.5669V87.362L12.8463 87.5387L12.7584 87.627L12.6705 87.6977L12.6003 87.7153L12.1258 87.5917L11.7216 87.468L11.335 87.2913L10.9483 87.0793L10.6144 86.8143L10.2981 86.5493L10.0345 86.2312L9.77091 85.8779L9.61275 85.5952L9.45458 85.1712L9.36672 84.7825L9.314 84.1994V82.6977L9.36672 82.5563L9.45458 82.4327L9.56003 82.3443L9.70061 82.2736L12.4421 81.5316L12.5827 81.5139L12.6881 81.5493L12.776 81.6199L12.8463 81.7083L12.8639 81.8143V82.4503L12.9166 82.5917L13.0044 82.6623L13.1626 82.68L14.2522 82.3797L14.3752 82.2913L14.4279 82.1146V79.2524H12.8814L1.14228 82.415V82.4327L0.896252 82.521L0.667796 82.6447L0.474487 82.786L0.298751 82.9804L0.193309 83.1747L0.0878679 83.4221L0.0175736 83.6694L0 83.9168V139.977L0.0351472 140.136L0.105441 140.277L0.210883 140.383L0.351472 140.454L0.509634 140.489H1.72221L1.98581 140.454L2.23184 140.348L2.51302 140.136L3.46199 139.182L3.7256 138.899L3.81347 138.705L3.88376 138.51L3.91891 138.122V137.168H2.58332V132.503L2.60089 132.397L2.68876 132.309L2.77662 132.221L3.00508 132.185H8.66377L8.85708 132.238L8.96252 132.327L9.01524 132.433L9.03282 132.556L8.06627 137.945L8.11899 138.192L9.03282 139.765H9.05039L9.15583 139.941L9.314 140.083L9.5073 140.171L9.71819 140.26L9.92907 140.277H10.2981L10.5441 140.242L10.7726 140.154L10.9835 140.03L11.1416 139.853L12.2839 138.263L12.3894 138.051L12.4772 137.821V137.115L10.263 137.079L10.14 137.044L10.0345 136.956L9.98179 136.85L9.96422 136.708L10.7023 132.468L10.7902 132.274L10.878 132.203L11.0889 132.15H50.8228L51.0337 132.203L51.1215 132.291L51.1918 132.433L51.9475 136.744L51.9299 136.885L51.8772 136.991L51.7718 137.079L51.6487 137.115H49.4169V137.804L49.5048 138.051L49.6805 138.351L50.7525 139.835L50.9107 140.012L51.1215 140.136L51.35 140.224L51.596 140.26H51.9826L52.1935 140.242L52.4044 140.154L52.5977 140.065L52.7559 139.924L52.8613 139.747H52.8789L53.7751 138.175L53.8279 137.927L52.8789 132.539L52.8965 132.415L52.9492 132.309L53.0546 132.221L53.2479 132.168H58.9066L59.1351 132.203L59.223 132.291L59.3108 132.38L59.3284 132.486V137.15H57.9928V138.157L58.0455 138.563L58.151 138.811L58.3618 139.093L59.3108 140.048L59.592 140.313L59.7853 140.401L59.9786 140.472L60.1719 140.489H61.3845L61.5427 140.454L61.6833 140.383L61.7887 140.277L61.859 140.136L61.9117 139.888V101.178L61.8766 100.825ZM2.56574 84.4998L7.62693 83.157V83.7754L7.64451 84.2701L7.7148 84.7471L7.82024 85.2242L7.96083 85.6835L8.13657 86.1252L8.36502 86.5669L8.62863 86.991L8.92738 87.3797L9.2437 87.7507L9.61275 88.0864L9.99936 88.3867L10.4036 88.6517L10.8429 88.8991V102.079L10.8077 102.309L10.7199 102.397L10.632 102.486L10.5266 102.503H2.88207L2.77662 102.486L2.68876 102.397L2.60089 102.309L2.58332 102.203V84.4998H2.56574ZM11.5458 129.818L11.5283 129.924L11.4404 130.012L11.3525 130.1L11.2471 130.118H2.88207L2.77662 130.1L2.68876 130.012L2.60089 129.924L2.58332 129.818V122.132L2.60089 122.026L2.68876 121.938L2.77662 121.85L2.88207 121.832H11.2471L11.3525 121.85L11.4404 121.938L11.5283 122.026L11.5458 122.132V129.818V129.818ZM11.5458 120.666L11.5283 120.772L11.4404 120.86L11.3525 120.949L11.2471 120.984H2.88207L2.77662 120.966L2.68876 120.878L2.60089 120.79L2.58332 120.684V103.652L2.60089 103.546L2.68876 103.457L2.77662 103.369L2.88207 103.351H10.5266L10.632 103.369L10.7199 103.457L10.8077 103.546L10.8429 103.775V106.072L10.8956 106.443L10.9835 106.797L11.1241 107.132L11.3174 107.45L11.5634 107.733V120.666H11.5458ZM50.5767 119.199L50.0671 119.747L50.5767 120.242V130.118H12.6881L12.5827 130.1L12.4948 130.012L12.4069 129.924L12.3894 129.818V108.316L49.3642 105.401L49.5399 105.419L49.6454 105.472L49.7332 105.56L49.8035 105.666L49.8211 105.79L49.8035 105.913L49.7332 106.019H49.7684L49.6629 106.373L49.6102 106.744V107.097L49.6805 107.468H47.4662V108.298H49.3115L49.5751 108.334L49.8211 108.404L50.032 108.528L50.2429 108.705L50.3834 108.917L50.4889 109.146L50.5592 109.394L50.5767 109.659V119.199V119.199ZM59.346 129.818L59.3284 129.924L59.2405 130.012L59.1527 130.1L59.0472 130.118H51.4027V122.857H59.0472L59.1527 122.874L59.2405 122.963L59.3284 123.051L59.346 123.157V129.818ZM59.346 121.708L59.3284 121.814L59.2405 121.903L59.1527 121.991L59.0472 122.009H51.4027V114.04H53.1425V112.998H51.4027V110.383L56.2354 110.401V111.938H56.7626L58.2916 110.383H58.9242L59.1527 110.419L59.2405 110.507L59.3284 110.595L59.346 110.701V121.708Z" fill="#05252F"/>
  <path d="M82.983 50.6483L82.8951 50.4363L82.7897 50.2419L82.6315 50.0829L82.4382 49.9769L82.2097 49.8886L81.9813 49.8709V49.8532H78.5369L78.203 49.8886L78.08 49.9593L77.9569 50.0829L77.8866 50.2066L77.8515 50.5423V52.6624H80.2942V57.1147H80.2767L80.2591 57.3444L80.1888 57.5564L80.0833 57.7331L79.9428 57.8921L79.767 58.0158L79.5737 58.1041L79.3453 58.1395L79.1168 58.1218V58.1395H74.4071V58.1218L74.1435 58.1041L73.8799 58.0335L73.6163 57.9275L73.423 57.7684L73.2472 57.5918L73.0891 57.3798L72.9836 57.1324L72.9309 56.8674L72.9133 56.5847L72.9485 56.3197L73.0188 56.0547L73.1242 55.8073V55.7896L73.3702 55.2949L73.546 54.7826L73.669 54.2525L73.7217 53.7225L73.7393 53.1748V50.0476H71.156L71.6656 52.4151V52.9451L35.0247 55.8603H34.7962L34.5678 55.8073L34.3745 55.719L34.2339 55.5776L34.1109 55.401L34.023 55.2066L34.0054 54.9769H33.9878V39.4646H35.5519V36.7084L35.5168 36.5847L35.4289 36.4964L35.3234 36.4434L34.3569 36.1783H34.1636L34.0581 36.249L34.023 36.355V37.2031L33.9703 37.3621L33.9 37.4504L33.8121 37.5034L33.7418 37.5211L33.2146 37.4151L32.7928 37.2914L32.3887 37.1147L32.0196 36.8674L31.6681 36.5847L31.3518 36.2667L31.0706 35.9133L30.8246 35.5423L30.6489 35.1359L30.5259 34.7119L30.438 34.1819V32.5388L30.4556 32.3974L30.5259 32.2561L30.6489 32.1501L30.9652 32.0087L33.6891 31.2843L33.8473 31.302L33.9176 31.3727L33.9527 31.4787V32.2737L33.9703 32.3797L34.023 32.4504L34.1109 32.4858L34.269 32.4504L35.218 32.2031L35.3586 32.1147L35.4465 32.0264L35.4816 31.7614V29.0405H33.9176L22.1608 32.2031L22.1784 32.2207L21.8972 32.3091L21.6512 32.4504L21.4227 32.6271L21.2646 32.8568L21.1416 33.1041L21.0537 33.3868L21.001 33.7932V90.825L21.0185 90.984L21.0888 91.1077L21.2119 91.2313L21.3349 91.302L21.493 91.3197H23.5667L23.7249 91.302L23.8479 91.2313L23.9709 91.1077L24.0412 90.984L24.0588 90.825V89.7826H23.5491V86.8144L23.6019 86.5317L23.6722 86.3904L23.7952 86.2667L23.9358 86.196L24.1115 86.1607H31.4397L31.5978 86.249L31.7033 86.3727L31.7736 86.5494L31.1585 90.2949H30.1392V91.3374H43.5654V89.0582H45.6391V87.2914H43.5654V80.6483H43.583L43.6006 80.3656L43.6709 80.1006L43.7763 79.8533L43.9345 79.6412L44.1102 79.4646L44.3387 79.3056L44.5847 79.1995L44.8483 79.1289L45.1295 79.1112V79.0935H51.4208L51.9305 78.5812L52.4401 79.0935H58.7314V79.1112L59.0126 79.1289L59.2762 79.1995L59.5223 79.3056L59.7331 79.4646L59.9089 79.6412L60.067 79.8533L60.1725 80.1006L60.2428 80.3656L60.2603 80.6483V87.2914H58.3448V89.0582H60.4009V91.3374H70.1016V101.726H68.5727V104.482L68.6605 104.659L68.8011 104.747L69.8379 105.03H69.961L70.0488 104.959L70.084 104.853V104.111L70.1191 103.846L70.1718 103.758L70.2773 103.687L70.3827 103.652L70.4882 103.67L70.5057 103.687L70.9275 103.776L71.3317 103.899L71.7183 104.094L72.0874 104.306L72.4388 104.588L72.7376 104.924L73.0012 105.26L73.2297 105.648L73.4054 106.037L73.5108 106.461L73.5987 106.885L73.6163 107.327V109.5L73.5987 109.659L73.5284 109.783L73.423 109.906L73.2824 109.977L73.1242 109.995H70.33L70.2421 109.977L70.1543 109.889L70.1191 109.712V108.864L70.084 108.758L69.9785 108.687H69.8028L68.8187 108.935L68.6605 109.076L68.5902 109.27V112.097H80.9796V112.079L81.3135 112.062L81.6298 111.991L81.9286 111.867L82.2097 111.708L82.4558 111.496L82.6842 111.249L82.8424 110.966L82.9654 110.666L83.0357 110.348L83.0533 110.012V50.8603L82.983 50.6483ZM23.6546 34.1995L28.048 32.9981L28.1886 32.9805L28.3292 32.9981L28.4346 33.0688L28.5225 33.1925L28.5576 33.3161H28.5752L28.5576 33.8462L28.5928 34.3585L28.6806 34.8709L28.8036 35.3656L28.9618 35.8603L29.1903 36.3373L29.4539 36.7967L29.7526 37.2207L30.1041 37.6094L30.4731 37.9805L30.8598 38.3338L31.2991 38.6342L31.5803 38.8108L31.8087 38.9875L31.8614 39.0759L31.8966 39.3409V51.8674L31.8614 52.0971L31.7912 52.1854L31.7033 52.2561L31.4748 52.2914H23.637V34.1995H23.6546ZM23.6546 53.1395H31.5275L31.756 53.1925L31.8614 53.2985L31.9142 53.5282V55.3833L31.9669 55.931L32.0548 56.2667L32.1953 56.6024L32.3711 56.9204L32.5995 57.2031L32.8631 57.4504L33.1619 57.6448L33.3376 57.7331L33.6012 57.9098L33.6715 58.1041V74.1642H23.6546V53.1395V53.1395ZM32.828 83.9345L32.7577 84.0759L32.6523 84.1819L32.5117 84.2525L32.3535 84.2702H24.3048L24.1291 84.2172L23.9709 84.1289L23.8479 84.0052L23.76 83.8462L23.7073 83.6695V83.4928V75.0123H33.7242L32.8983 83.7932L32.828 83.9345ZM62.8437 89.0759L62.6152 89.0229L62.5098 88.9169L62.457 88.7048V81.9204H66.0772V80.6836H62.457L62.4395 80.2773L62.3692 79.8709L62.2637 79.4822L62.1056 79.1112L61.9298 78.7402L61.6838 78.4045L61.4026 78.1041L61.1039 77.8215L60.77 77.5741L60.4009 77.3974L60.0319 77.2384L59.6453 77.1324L59.2411 77.0617L58.8369 77.0441V77.0264H54.6017V75.719L54.5314 75.454L54.4083 75.2066L54.2678 74.9593L54.0745 74.7826L53.8636 74.6412L53.6 74.5352L53.3364 74.4646L53.0552 74.4469V76.7084H50.9815V74.4469L50.7003 74.4646L50.4367 74.5352L50.1907 74.6412L49.9622 74.8002L49.7865 74.9769L49.6283 75.2066L49.5229 75.454L49.4526 75.719L49.435 76.0017V77.0264H45.1998V77.0441L44.7956 77.0617L44.3914 77.1324L44.0048 77.2384L43.6357 77.3974L43.2667 77.5741L42.9328 77.8215L42.6341 78.1041L42.3529 78.4045L42.1068 78.7402L41.9311 79.1112L41.8257 79.4646L41.7202 79.8533L41.6499 80.2596L41.6324 80.666H41.6148V88.6518L41.5796 88.8815L41.5093 88.9699L41.4215 89.0405L41.193 89.0759H33.197L34.4975 74.9593V58.4398L34.5502 58.2278L34.6381 58.1395L34.849 58.0688L49.4175 56.9204L49.558 56.9381L49.6635 56.9911L49.7338 57.0971L49.7689 57.3621V58.4752H50.9991V57.1501L51.0518 56.9381L51.1397 56.8497L51.2802 56.7967L52.651 56.673L52.8267 56.7084L52.9322 56.7614L53.0025 56.8497L53.0376 57.1147V58.4928H54.2853V56.9027L54.3381 56.6907L54.4259 56.6024L54.6368 56.514L65.4797 55.666L65.7082 55.7013L65.8136 55.7896L65.8839 55.984V58.4398H67.114V55.825L67.1668 55.613L67.2546 55.5246L67.3952 55.4716L70.3652 55.2243L70.5936 55.2596L70.6991 55.3303L70.7869 55.4186L70.8396 55.5423V55.7543L70.7518 56.0547L70.6991 56.4257L70.6815 56.8144L70.7166 57.2031L70.7869 57.5741L70.8924 57.9275L71.0505 58.2808L71.279 58.5988L71.525 58.8992L71.8062 59.1819L72.1049 59.3939V89.1112H62.8437V89.0759ZM80.4172 109.394L80.3997 109.553L80.3294 109.694L80.2239 109.783L80.0658 109.818H75.9887L75.7427 109.765L75.6197 109.677L75.5318 109.553L75.5142 109.394V107.698L75.4439 107.009L75.356 106.479L75.2155 105.984L75.0222 105.489L74.7761 105.012L74.4949 104.553L74.1786 104.129L73.8272 103.723L73.4405 103.351L73.0188 103.033L72.6497 102.786L72.4388 102.521L72.2982 102.274L72.228 102.009L72.1928 101.744L72.2104 101.461H72.1928V98.9169H80.4524V109.394H80.4172ZM80.4172 98.0865H72.1577L72.1752 90.4716L72.1928 90.3303L72.2631 90.2066L72.351 90.1183L72.474 90.0476L72.7727 90.0123H80.3997V98.0865H80.4172ZM80.4172 89.1642H72.9836V60.2066H80.4172V89.1642Z" fill="#05252F"/>
</svg>
