<svg xmlns="http://www.w3.org/2000/svg" xml:space="preserve" style="enable-background:new 0 0 100 100" viewBox="0 0 100 100"><style>.st1{fill:#fff}</style><g id="Layer_1"><path d="M50 100c27.6 0 50-22.4 50-50S77.6 0 50 0 0 22.4 0 50s22.4 50 50 50z" style="fill:#00bf00"/><path d="M79 21C71.3 13.3 61 9 50 9s-21.3 4.3-29 12S9 39 9 50s4.3 21.3 12 29c7.7 7.7 18 12 29 12s21.3-4.3 29-12c7.7-7.7 12-18 12-29s-4.3-21.2-12-29zM50 89.7c-21.9 0-39.7-17.8-39.7-39.7 0-21.9 17.8-39.7 39.7-39.7 21.9 0 39.7 17.8 39.7 39.7 0 21.9-17.8 39.7-39.7 39.7z" class="st1"/><path d="M84.4 15.8C75.2 6.6 63 1.6 50 1.6S24.8 6.7 15.6 15.8 1.4 37.2 1.4 50.2s5.1 25.2 14.2 34.4C24.8 93.7 37 98.8 50 98.8s25.2-5.1 34.4-14.2c9.2-9.2 14.2-21.4 14.2-34.4S93.5 25 84.4 15.8zm12.9 34.4c0 26.1-21.2 47.3-47.3 47.3S2.7 76.3 2.7 50.2 23.9 2.9 50 2.9s47.3 21.2 47.3 47.3z" class="st1"/><path d="M31.7 48.7h-7c-1.2 0-1.8-.6-1.8-1.9 0-1.3.6-1.9 1.8-1.9h6.8c.8 0 1.5-.2 1.9-.7.5-.5.7-1.2.7-2.1v-3h-6.7c-.7 0-1.1-.1-1.5-.5-.3-.3-.5-.8-.5-1.6 0-1.3.6-2 1.9-2H34v-1.7c0-1.9-.9-2.9-2.6-2.9H25c-1.2 0-1.8-.6-1.8-1.9 0-1.3.6-1.9 1.8-1.9h6.8c2.2 0 3.8.6 4.8 1.7s1.4 2.9 1.4 5.3V42c0 2.2-.6 3.9-1.8 5.1-1.1 1-2.6 1.6-4.5 1.6zM57.1 28.6 55.8 33c-.8 2.3-1.8 3.7-3 4.2.8.3 1.5.7 1.9 1.4.4.7.8 1.7 1.2 3l1.6 5.2c.1.5 0 .9-.2 1.2-.2.4-.7.7-1.4.9-.7.1-1.2.1-1.4-.1-.4-.2-.7-.7-1-1.5l-1.5-5c-.3-1.2-.8-2-1.4-2.5-.6-.5-1.4-.7-2.4-.7h-2.7v7.5c0 .8-.1 1.4-.4 1.8-.3.3-.8.5-1.6.5-.7 0-1.2-.2-1.5-.5-.3-.4-.4-.9-.4-1.7V28.5c0-.7.2-1.3.5-1.6.3-.4.8-.5 1.6-.5.7 0 1.2.2 1.5.5.3.3.4.9.4 1.7v7.1h2.6c1 0 1.8-.2 2.4-.6.5-.4 1-1.2 1.4-2.3l1.4-4.5c.2-.8.6-1.3 1-1.5.2-.2.7-.2 1.4-.1s1.1.4 1.4.9c-.1.2 0 .6-.1 1zM66.9 26.5h3c4.4 0 6.6 2.4 6.6 7.1v8c0 2.2-.6 4-1.8 5.2-1.2 1.2-2.8 1.9-4.8 1.9h-3.1c-2 0-3.6-.6-4.8-1.7-1.2-1.1-1.8-2.9-1.8-5.3v-8.1c0-2.3.6-4 1.8-5.3 1.3-1.2 2.9-1.8 4.9-1.8zM72.6 42v-8.8c0-.9-.3-1.7-.8-2.2-.5-.6-1.3-.8-2.4-.8h-2.1c-1 0-1.8.3-2.3.8-.5.6-.8 1.3-.8 2.2v8.9c0 .9.3 1.7.8 2.2.5.5 1.3.8 2.3.8h2.1c1 0 1.8-.3 2.3-.9.7-.6.9-1.3.9-2.2zM27.4 62.6c-.6 0-.9-.3-.9-.8v-7.3H23v7.3c0 .5-.3.8-.9.8-.6 0-.9-.3-.9-.8v-8.2c0-.5.3-.8.9-.8h5.3c.6 0 .9.3.9.8v8.2c0 .6-.3.8-.9.8zM34 58.9h-2.3v2.9c0 .5-.3.8-.9.8-.6 0-.9-.3-.9-.8v-8.2c0-.6.3-.8.9-.8h3.1c.9 0 1.7.3 2.2.8.5.5.8 1.3.8 2.2 0 1-.2 1.7-.7 2.3-.5.6-1.2.8-2.2.8zm0-4.4h-2.4v2.7H34c.4 0 .7-.1.9-.4.2-.3.3-.6.3-1 0-.5-.1-.8-.4-1-.2-.2-.5-.3-.8-.3zM41 52.8h1.3c1.9 0 2.9 1 2.9 3.1v3.5c0 1-.3 1.7-.8 2.3-.5.5-1.2.8-2.1.8H41c-.9 0-1.6-.2-2.1-.7-.5-.5-.8-1.3-.8-2.3v-3.6c0-1 .3-1.8.8-2.3.5-.5 1.2-.8 2.1-.8zm2.5 6.8v-3.9c0-.4-.1-.7-.3-1-.2-.2-.6-.4-1-.4h-.9c-.5 0-.8.1-1 .4-.2.2-.3.6-.3 1v3.9c0 .4.1.7.3 1 .2.2.6.4 1 .4h.9c.4 0 .8-.1 1-.4.2-.3.3-.6.3-1zM46.4 64l-.1-2.1c0-.3 0-.5.1-.7.1-.1.3-.2.6-.3.6-.2.9-.7 1-1.6l.5-5.6c0-.3.1-.5.2-.6.1-.1.4-.2.6-.2h3.9c.6 0 .9.3.9.8v7.2c.2 0 .3 0 .4.1s.2.1.3.1c.1.1.2.1.2.2v.4l-.1 2.3c0 .4-.3.6-.8.6-.3 0-.5 0-.6-.2-.1-.1-.2-.3-.2-.5l-.1-1.4h-5.4l.1 1.5c0 .4-.3.6-.8.6-.3 0-.5 0-.6-.2-.1 0-.1-.2-.1-.4zm2.9-3.1h3.1v-6.4h-2.3l-.4 5.1c-.1.6-.2 1-.4 1.3zM60 62.5h-2.8c-.2 0-.4-.1-.6-.2-.1-.1-.2-.4-.2-.7 0-.3.1-.5.2-.6.2-.1.3-.2.5-.2h2.8c.7 0 1-.3 1-1v-.1h-2c-.9 0-1.6-.3-2.1-.8s-.7-1.3-.7-2.3v-3c0-.2 0-.4.1-.5 0-.1.1-.2.2-.3s.2-.1.3-.1h.3c.3 0 .5.1.6.2s.2.4.2.7v3c0 .9.4 1.3 1.1 1.3H61v-4.3c0-.2 0-.4.1-.5 0-.1.1-.2.2-.3.1 0 .2-.1.3-.1h.3c.6 0 .9.3.9.9v6.2c0 .9-.2 1.5-.7 2-.5.5-1.2.7-2.1.7zM71.2 53.8l-.6 1.9c-.3 1-.8 1.6-1.3 1.8.4.1.6.3.8.6.2.3.4.7.5 1.3l.7 2.3c0 .2 0 .4-.1.5-.1.2-.3.3-.6.4-.3.1-.5 0-.6 0-.2-.1-.3-.3-.4-.6l-.6-2.2c-.1-.5-.3-.9-.6-1.1-.3-.2-.6-.3-1.1-.3h-1.2v3.3c0 .4-.1.6-.2.8-.1.1-.4.2-.7.2-.3 0-.5-.1-.7-.2-.1-.2-.2-.4-.2-.8v-8c0-.3.1-.5.2-.7.1-.2.4-.2.7-.2.3 0 .5.1.7.2.1.1.2.4.2.7v3.1h1.1c.5 0 .8-.1 1-.3.2-.2.4-.5.6-1l.6-2c.1-.3.2-.5.4-.6.1-.1.3-.1.6 0s.5.2.6.4c.2.1.2.2.2.5zM59.1 76.6c-.5-.9-.9-1.7-1.4-2.5-1.1-1.7-2.4-3.1-4.3-3.9-2.6-1.1-5.2-1.1-7.8.1-.9.4-1.7.9-2.6 1.2-1.5.5-2.9.2-4.1-.6-.6-.4-1-.2-1.1.5-.2 1.9.3 3.5 1.3 5.1 2.5 3.7 5.9 6.2 10.2 7.4 2.1.6 4.2.3 6.1-.9 1.6-1.1 2.7-2.6 3.4-4.4.2-.6.5-.9 1.1-1 .6-.2 1.2-.4 1.8-.7.4-.1.5-.4.3-.7-.1-.3-.4-.4-.8-.2-.6.1-1.4.3-2.1.6zm-20.2-4.5c.1.1.2.1.3.2 1.5.7 3 .8 4.5.1.7-.3 1.5-.7 2.2-1.1 2.6-1.3 5.3-1.2 7.8.2 2.1 1.2 3.3 3.1 4.3 5.3-1.2.3-2.4.4-3.7.5-.1 0-.2-.1-.3-.2l-2.4-3.9c-.1-.1-.1-.2-.2-.3-.2-.2-.4-.3-.7-.1-.2.2-.3.4-.2.7 0 .1.1.2.2.3.7 1.1 1.3 2.2 2 3.2.1.1.1.2.2.3h-.2c-1.3-.2-2.6-.3-3.8-.5-.1 0-.3-.2-.4-.3-.6-.9-1.1-1.8-1.7-2.7-.2-.3-.5-.4-.7-.2-.3.2-.3.5-.2.8.2.3.3.5.5.8.2.4.5.7.7 1.1 0 0 0 .1-.1.1-.9-.4-1.8-.8-2.6-1.2-.6-.3-1.2-.6-1.7-1-.2-.1-.5-.1-.7.1-.1.1-.1.4-.1.6 0 .1.2.2.3.3 1.4.9 2.8 1.6 4.4 2.1.1 0 .2.1.4.1-.1.1-.2.1-.3.2-.6.4-1.1.7-1.7 1.1-.3.2-.4.5-.2.8.2.3.5.3.8.1.1 0 .2-.1.2-.1l2.4-1.5c.1-.1.3-.1.5-.1 1.1.1 2.1.3 3.1.5h.2v.1c-.2.1-.5.3-.7.5-.6.4-1.2.8-1.9 1.2-.3.2-.3.5-.2.7.1.2.5.3.7.2.1 0 .2-.1.2-.1 1.2-.7 2.4-1.5 3.6-2.2.1-.1.3-.1.5-.1 1.1-.1 2.2-.3 3.3-.4h.3c-.3.6-.6 1.2-.9 1.7-1.8 2.8-4.4 3.9-7.7 3.1-1.6-.4-3.1-1.2-4.5-2.1-2.1-1.4-3.9-3.1-5.1-5.3-.4-1.4-.7-2.4-.7-3.6zM78.6 54.5h-2v7.3c0 .5-.3.8-.9.8-.6 0-.9-.3-.9-.8v-7.3h-2.1c-.5 0-.8-.3-.8-.8 0-.6.3-.8.8-.8h5.8c.5 0 .8.3.8.8.1.5-.1.8-.7.8z" class="st1"/></g></svg>
